<?xml version="1.0" encoding="UTF-8"?>
<svg class="fl-svgdocument" width="500" height="250" overflow="hidden" data-bbox="41.599999999999966 171.30912605007768 428.8 169.38174789984464" viewBox="30 160 450 190" xmlns="http://www.w3.org/2000/svg" xmlns:xlink="http://www.w3.org/1999/xlink">
<path d="M124.898 332.513c-.13 0-.265-.011-.398-.038l-65.86-12.213a2.181 2.181 0 0 1 .794-4.287l63.059 11.692-3.452-42.312-35.887-100.7a2.18 2.18 0 1 1 4.108-1.465l35.984 100.974c.063.178.104.362.118.556l3.708 45.433a2.187 2.187 0 0 1-2.174 2.36z" fill="#ffab4a"/>
<path d="M124.474 332.9a2.185 2.185 0 0 1-1.923-3.21l64.117-120.239a2.184 2.184 0 0 1 2.951-.899 2.186 2.186 0 0 1 .9 2.952L126.4 331.744a2.18 2.18 0 0 1-1.927 1.156z" fill="#ff6b4a"/>
<path d="M120.766 287.629a2.3 2.3 0 0 1-.442-.044h-.004c-.032-.007-.06-.015-.089-.023-.006 0-.007 0-.011-.003a2.163 2.163 0 0 1-1.023-.592L54.34 222.104l-8.413 45.931a2.183 2.183 0 0 1-2.537 1.753 2.183 2.183 0 0 1-1.753-2.538l9.16-50.019a2.177 2.177 0 0 1 3.685-1.15l65.045 65.046 18.77-80.91-54.049-13.626c-.997-.25-1.684-1.165-1.646-2.193s.789-1.891 1.8-2.07l61.936-10.904a2.18 2.18 0 0 1 2.502 2.64l-5.33 22.969 45.61 11.498a2.184 2.184 0 0 1 1.553 1.483c.22.732.042 1.529-.472 2.096l-67.791 74.77a1.99 1.99 0 0 1-.425.373c0 .004-.002.004-.002.004h-.004l-.002.004h-.002c-.032.023-.06.04-.093.059h-.002l-.003.003h-.004c-.33.198-.711.306-1.106.306zm21.76-86.346-17.743 76.484 59.747-65.894-42.004-10.59zm-47.32-16.428 44.077 11.112 4.563-19.676-48.64 8.564z" fill="#ff4a4a"/>
<path d="M58.691 320.772c-.275 0-.544-.052-.794-.148a2.283 2.283 0 0 1-.54-.308 2.222 2.222 0 0 1-.765-1.138l-14.824-51.01a2.18 2.18 0 0 1 .831-2.386l97.121-69.017a2.183 2.183 0 0 1 3.065 3.01L65.542 312.458l54.276-29.015c.315-.167.67-.256 1.028-.256h88.402l-22.477-71.392-41.42-36.672a2.18 2.18 0 0 1-.186-3.079 2.18 2.18 0 0 1 3.077-.187l41.871 37.072c.296.264.516.602.636.98l23.552 74.803c.207.66.09 1.383-.322 1.94a2.175 2.175 0 0 1-1.759.894h-90.827l-61.63 32.947a2.73 2.73 0 0 1-.302.14 2.322 2.322 0 0 1-.402.108c-.122.023-.245.03-.367.03zM46.39 268.439l13.11 45.115 72.754-106.13-85.864 61.015z" fill="#ff954a"/>
<path d="m130.84 198.62a9.296 9.296 0 1 0 18.592 0 9.296 9.296 0 1 0 -18.592 0" fill="#ff4a4a" data-cx="55.538" data-cy="19.677" data-r="4.901" data-type="circle"/>
<path d="m70.147 242.25a9.294 9.294 0 1 0 18.589 0 9.294 9.294 0 1 0 -18.589 0" fill="#ff6b4a" data-cx="23.472" data-cy="42.596" data-r="4.9" data-type="circle"/>
<path d="m111.88 285.88a9.296 9.296 0 1 0 18.593 0 9.296 9.296 0 1 0 -18.593 0" fill="#ff954a" data-cx="45.736" data-cy="65.145" data-r="4.901" data-type="circle"/>
<path d="M49.283 318.12a9.296 9.296 0 1 0 18.592 0 9.296 9.296 0 1 0-18.592 0" fill="#ffab4a" data-cx="12.968" data-cy="82.662" data-r="4.901" data-type="circle"/>
<path d="m179.64 210a9.296 9.296 0 1 0 18.592 0 9.296 9.296 0 1 0 -18.592 0" fill="#ffab4a" data-cx="81.493" data-cy="25.552" data-r="4.901" data-type="circle"/>
<path d="m115.67 331.4a9.294 9.294 0 1 0 18.588 0 9.294 9.294 0 1 0 -18.588 0" fill="#ff6b4a" data-cx="47.69" data-cy="89.1" data-r="4.9" data-type="circle"/>
<path d="M254.67 253.084h-14.996q-7.683 0-11.401-3.073-3.719-3.073-3.719-9.465v-19.114q0-6.392 3.719-9.496 3.718-3.104 11.4-3.104h14.997q1.168 0 1.69.522.523.523.523 1.69v7.437q0 1.168-.522 1.69-.523.523-1.69.523h-12.354q-1.906 0-2.828.768-.922.769-.922 2.305v14.628q0 1.536.922 2.243.922.707 2.828.707h12.353q1.168 0 1.69.522.523.523.523 1.69v7.315q0 1.167-.522 1.69-.523.522-1.69.522Zm27.658-33.189h-4.61v7.867h4.61q1.598 0 2.151-.83.553-.83.553-2.059v-2.09q0-1.229-.553-2.058-.553-.83-2.151-.83Zm-6.822 33.19h-9.465q-1.168 0-1.69-.523-.523-.523-.523-1.69v-39.827q0-1.168.523-1.69.522-.523 1.69-.523h20.466q6.884 0 9.496 2.858t2.612 7.406v2.827q0 2.582-.768 4.395-.768 1.813-2.674 2.612 3.32.369 5.378 2.704 2.06 2.336 2.06 6.208v13.03q0 1.167-.523 1.69-.523.522-1.69.522h-9.527q-1.168 0-1.69-.522-.522-.523-.522-1.69v-9.404q0-1.352-.523-1.998-.522-.645-1.813-.645h-8.605v12.047q0 1.167-.522 1.69-.522.522-1.69.522Zm54.578 0h-9.957q-1.168 0-1.69-.523-.523-.523-.523-1.69v-7.867l-9.403-12.6q-1.414-1.905-1.875-3.319-.461-1.414-.461-4.24v-11.801q0-1.168.522-1.69.523-.523 1.69-.523h9.466q1.167 0 1.69.522.522.523.522 1.69v10.08q0 .615.062 1.29.061.677.491 1.292l2.828 4.425q.307.553.645.799t.83.246h.614q.492 0 .83-.246.338-.246.645-.8l2.828-4.424q.43-.615.491-1.291.062-.676.062-1.29v-10.08q0-1.168.522-1.69.523-.523 1.69-.523h9.158q1.168 0 1.69.522.523.523.523 1.69v11.801q0 2.827-.492 4.241-.492 1.414-1.844 3.319l-9.342 12.661v7.806q0 1.167-.522 1.69-.523.522-1.69.522Zm32.636 0h-9.527q-1.168 0-1.69-.523-.523-.523-.523-1.69v-39.827q0-1.168.523-1.69.522-.523 1.69-.523H372q8.359 0 11.432 3.319 3.073 3.319 3.073 8.666v7.867q0 5.347-3.073 8.666T372 240.67h-7.068v10.203q0 1.167-.522 1.69-.523.522-1.69.522Zm7.62-32.76h-5.53v9.28h5.53q1.783 0 2.336-.921.553-.922.553-2.09v-3.257q0-1.168-.553-2.09-.553-.922-2.335-.922Zm43.454 32.76h-9.957q-1.168 0-1.69-.523t-.522-1.69v-30.178h-9.035q-1.168 0-1.69-.522-.523-.523-.523-1.69v-7.437q0-1.168.523-1.69.522-.523 1.69-.523h32.451q1.168 0 1.69.522.523.523.523 1.69v7.437q0 1.168-.522 1.69-.523.523-1.69.523h-9.035v30.178q0 1.167-.523 1.69-.522.522-1.69.522ZM470.4 220.51v20.958q0 2.827-.83 5.132-.83 2.305-2.95 3.934-2.12 1.628-5.839 2.55-3.718.922-9.434.922-5.716 0-9.465-.922-3.75-.922-5.87-2.55-2.12-1.63-2.95-3.934-.83-2.305-.83-5.132V220.51q0-2.828.83-5.132.83-2.305 2.95-3.965 2.12-1.66 5.87-2.581 3.749-.922 9.465-.922 5.716 0 9.434.922 3.719.922 5.84 2.581 2.12 1.66 2.95 3.965.829 2.304.829 5.132Zm-24.216 2.212v16.533q0 1.23.922 2.06.922.83 4.241.83 3.319 0 4.24-.83.923-.83.923-2.06v-16.533q0-1.168-.922-1.997-.922-.83-4.241-.83-3.319 0-4.24.83-.923.83-.923 1.997ZM246.57 304.09h-9.957q-1.168 0-1.69-.522-.523-.523-.523-1.69V271.7h-9.035q-1.167 0-1.69-.523-.522-.522-.522-1.69v-7.437q0-1.167.522-1.69.523-.522 1.69-.522h32.452q1.168 0 1.69.522.523.523.523 1.69v7.437q0 1.168-.523 1.69-.522.523-1.69.523h-9.035v30.177q0 1.168-.522 1.69-.523.523-1.69.523Zm51.197-44.252h9.158q1.167 0 1.69.522.522.523.522 1.69v23.847q0 1.967-.153 3.657-.154 1.69-.953 3.965l-3.073 8.358q-.307.922-.891 1.568-.584.645-1.568.645h-8.174q-.983 0-1.782-.43-.8-.43-1.045-1.414l-2.827-10.018q-.185-.615-.461-.83-.277-.215-.646-.215h-.553q-.369 0-.645.215-.277.215-.461.83l-2.889 10.018q-.246.922-.922 1.383-.676.461-1.66.461h-8.112q-.984 0-1.69-.615-.707-.614-1.014-1.598l-3.074-8.481q-.799-2.274-.952-3.965-.154-1.69-.154-3.657V262.05q0-1.167.523-1.69.522-.522 1.69-.522h9.465q1.168 0 1.69.522.522.523.522 1.69v22.618l3.565-7.744q.492-1.045 1.29-1.475.8-.43 1.968-.43h2.581q1.168 0 1.967.43.799.43 1.29 1.475l3.565 7.744V262.05q0-1.167.523-1.69.522-.522 1.69-.522Zm46.71 44.252h-26.182q-1.168 0-1.69-.522-.523-.523-.523-1.69v-7.315q0-1.167.523-1.69.522-.522 1.69-.522h6.085V271.7h-6.085q-1.168 0-1.69-.523-.523-.522-.523-1.69v-7.437q0-1.167.523-1.69.522-.522 1.69-.522h26.183q1.167 0 1.69.522.522.523.522 1.69v7.437q0 1.168-.522 1.69-.523.523-1.69.523h-5.962v20.65h5.962q1.167 0 1.69.523.522.523.522 1.69v7.314q0 1.168-.522 1.69-.523.523-1.69.523Zm30.301 0h-19.422q-1.168 0-1.69-.522-.522-.523-.522-1.69v-7.192q0-1.167.522-1.69.522-.522 1.69-.522h16.533q.8 0 1.199-.523.4-.522.4-1.26 0-1.044-.4-1.536t-1.199-.553l-9.219-1.291q-4.302-.615-6.914-2.827-2.612-2.213-2.612-7.376v-6.453q0-5.224 3.38-8.02 3.38-2.797 9.342-2.797h17.21q1.167 0 1.69.522.522.523.522 1.69v7.314q0 1.168-.522 1.69-.523.523-1.69.523h-14.321q-.8 0-1.23.522-.43.523-.43 1.322t.43 1.352q.43.553 1.23.614l9.158 1.23q4.302.614 6.945 2.827 2.643 2.213 2.643 7.375v6.454q0 5.224-3.412 8.02-3.41 2.797-9.311 2.797Zm39.704 0h-9.957q-1.167 0-1.69-.522-.522-.523-.522-1.69V271.7h-9.035q-1.168 0-1.69-.523-.523-.522-.523-1.69v-7.437q0-1.167.523-1.69.522-.522 1.69-.522h32.452q1.167 0 1.69.522.522.523.522 1.69v7.437q0 1.168-.522 1.69-.523.523-1.69.523h-9.035v30.177q0 1.168-.523 1.69-.522.523-1.69.523Z" font-family="Bungee" font-size="100" letter-spacing="0"/>
</svg>
